<?xml version="1.0" encoding="UTF-8"?>
<svg xmlns="http://www.w3.org/2000/svg" xmlns:xlink="http://www.w3.org/1999/xlink" width="40px" height="40px" viewBox="0 0 40 40" version="1.1">
<g id="surface1">
<path style=" stroke:none;fill-rule:nonzero;fill:rgb(1.960784%,1.960784%,1.960784%);fill-opacity:1;" d="M 7.191406 10.605469 C 7.25 10.605469 7.308594 10.605469 7.371094 10.605469 C 7.5 10.601562 7.625 10.601562 7.75 10.601562 C 7.941406 10.601562 8.128906 10.597656 8.320312 10.597656 C 10.210938 10.582031 12.078125 11.097656 13.589844 12.363281 C 13.589844 12.417969 13.589844 12.476562 13.589844 12.53125 C 13.636719 12.554688 13.683594 12.574219 13.730469 12.597656 C 13.90625 12.699219 14.015625 12.769531 14.132812 12.945312 C 14.101562 13.324219 13.945312 13.574219 13.75 13.886719 C 13.667969 14.019531 13.667969 14.019531 13.582031 14.152344 C 13.535156 14.21875 13.488281 14.289062 13.4375 14.355469 C 13.386719 14.355469 13.335938 14.355469 13.28125 14.355469 C 13.265625 14.414062 13.246094 14.46875 13.230469 14.527344 C 13.101562 14.835938 12.925781 15.074219 12.730469 15.335938 C 12.675781 15.410156 12.675781 15.410156 12.621094 15.488281 C 12.535156 15.609375 12.445312 15.730469 12.355469 15.851562 C 12.175781 15.824219 12 15.796875 11.816406 15.769531 C 11.816406 15.710938 11.816406 15.65625 11.816406 15.601562 C 11.769531 15.578125 11.726562 15.558594 11.683594 15.535156 C 11.492188 15.425781 11.328125 15.300781 11.152344 15.160156 C 9.882812 14.195312 8.320312 13.945312 6.800781 14.199219 C 6.148438 14.335938 5.589844 14.648438 5.171875 15.210938 C 4.9375 15.648438 4.976562 16.195312 5.019531 16.679688 C 5.152344 17.183594 5.414062 17.445312 5.792969 17.757812 C 5.792969 17.8125 5.792969 17.867188 5.792969 17.925781 C 5.832031 17.9375 5.875 17.945312 5.917969 17.957031 C 6.128906 18.015625 6.335938 18.089844 6.542969 18.164062 C 6.988281 18.3125 7.429688 18.414062 7.886719 18.5 C 8.261719 18.570312 8.625 18.660156 8.996094 18.765625 C 9.21875 18.824219 9.441406 18.878906 9.667969 18.929688 C 10.441406 19.109375 11.179688 19.285156 11.890625 19.667969 C 11.960938 19.703125 12.035156 19.742188 12.105469 19.777344 C 13.199219 20.375 14.117188 21.28125 14.535156 22.542969 C 14.554688 22.609375 14.574219 22.671875 14.59375 22.738281 C 14.621094 22.816406 14.648438 22.894531 14.671875 22.972656 C 14.941406 23.90625 14.917969 24.847656 14.828125 25.808594 C 14.824219 25.875 14.820312 25.9375 14.820312 26.007812 C 14.765625 27.214844 14.074219 28.546875 13.28125 29.375 C 11.859375 30.644531 10.125 31.070312 8.3125 31.0625 C 8.132812 31.0625 7.957031 31.066406 7.777344 31.066406 C 6.734375 31.070312 5.71875 30.925781 4.71875 30.589844 C 4.664062 30.574219 4.613281 30.554688 4.554688 30.539062 C 3.3125 30.117188 2.203125 29.40625 1.3125 28.382812 C 1.289062 28.300781 1.261719 28.21875 1.234375 28.132812 C 1.183594 28.132812 1.132812 28.132812 1.082031 28.132812 C 0.980469 28 0.980469 28 0.875 27.820312 C 0.839844 27.765625 0.804688 27.707031 0.765625 27.648438 C 0.695312 27.46875 0.695312 27.46875 0.703125 27.304688 C 0.796875 27.078125 0.921875 26.917969 1.070312 26.726562 C 1.132812 26.648438 1.195312 26.566406 1.261719 26.484375 C 1.328125 26.398438 1.398438 26.3125 1.46875 26.222656 C 1.542969 26.128906 1.613281 26.035156 1.6875 25.941406 C 1.832031 25.761719 1.972656 25.578125 2.117188 25.398438 C 2.21875 25.269531 2.320312 25.140625 2.414062 25.003906 C 2.558594 24.796875 2.660156 24.664062 2.890625 24.582031 C 3.207031 24.6875 3.347656 24.941406 3.546875 25.21875 C 4.027344 25.847656 4.53125 26.296875 5.171875 26.722656 C 5.238281 26.765625 5.300781 26.808594 5.367188 26.851562 C 6.539062 27.558594 8.136719 27.691406 9.425781 27.351562 C 9.972656 27.179688 10.4375 26.832031 10.734375 26.308594 C 11.019531 25.597656 11.058594 24.878906 10.8125 24.148438 C 10.410156 23.375 9.75 23.058594 8.984375 22.8125 C 8.691406 22.730469 8.402344 22.652344 8.109375 22.574219 C 7.964844 22.53125 7.824219 22.488281 7.683594 22.441406 C 7.367188 22.347656 7.046875 22.277344 6.722656 22.214844 C 5.125 21.875 3.527344 21.328125 2.394531 20 C 2.394531 19.945312 2.394531 19.890625 2.394531 19.835938 C 2.34375 19.835938 2.292969 19.835938 2.238281 19.835938 C 1.285156 18.527344 1.113281 16.957031 1.234375 15.351562 C 1.359375 14.441406 1.707031 13.585938 2.238281 12.863281 C 2.289062 12.863281 2.339844 12.863281 2.394531 12.863281 C 2.414062 12.8125 2.433594 12.761719 2.453125 12.707031 C 2.5625 12.503906 2.65625 12.453125 2.855469 12.363281 C 2.855469 12.308594 2.855469 12.253906 2.855469 12.199219 C 3.191406 11.867188 3.191406 11.867188 3.476562 11.867188 C 3.476562 11.8125 3.476562 11.757812 3.476562 11.703125 C 4.671875 11.089844 5.847656 10.613281 7.191406 10.605469 Z M 7.191406 10.605469 "/>
<path style=" stroke:none;fill-rule:nonzero;fill:rgb(1.960784%,1.960784%,1.960784%);fill-opacity:1;" d="M 22.96875 10.609375 C 23.0625 10.609375 23.0625 10.609375 23.15625 10.609375 C 23.289062 10.605469 23.417969 10.605469 23.550781 10.605469 C 23.746094 10.605469 23.945312 10.605469 24.140625 10.605469 C 26.292969 10.59375 28.222656 11.222656 29.800781 12.832031 C 29.960938 13.027344 29.960938 13.027344 29.960938 13.277344 C 29.910156 13.277344 29.859375 13.277344 29.808594 13.277344 C 29.789062 13.335938 29.773438 13.394531 29.753906 13.453125 C 29.628906 13.746094 29.457031 13.980469 29.269531 14.230469 C 29.082031 14.484375 28.902344 14.734375 28.75 15.011719 C 28.714844 15.070312 28.683594 15.128906 28.648438 15.1875 C 28.597656 15.1875 28.546875 15.1875 28.496094 15.1875 C 28.472656 15.25 28.449219 15.3125 28.425781 15.378906 C 28.339844 15.601562 28.339844 15.601562 28.183594 15.851562 C 27.882812 15.902344 27.757812 15.875 27.5 15.695312 C 27.445312 15.636719 27.390625 15.578125 27.335938 15.519531 C 27.335938 15.464844 27.335938 15.410156 27.335938 15.351562 C 27.285156 15.351562 27.234375 15.351562 27.179688 15.351562 C 27.179688 15.296875 27.179688 15.242188 27.179688 15.1875 C 27.101562 15.15625 27.101562 15.15625 27.019531 15.121094 C 26.769531 15.007812 26.535156 14.875 26.296875 14.734375 C 25.039062 14.050781 23.386719 13.9375 22.027344 14.359375 C 21.84375 14.4375 21.84375 14.4375 21.648438 14.574219 C 21.46875 14.6875 21.46875 14.6875 21.3125 14.6875 C 21.3125 14.742188 21.3125 14.796875 21.3125 14.855469 C 21.242188 14.921875 21.242188 14.921875 21.171875 14.988281 C 20.875 15.335938 20.785156 15.710938 20.738281 16.171875 C 20.761719 16.707031 20.945312 17.242188 21.308594 17.621094 C 22.121094 18.28125 23.285156 18.460938 24.265625 18.648438 C 26.363281 19.054688 28.59375 19.613281 29.898438 21.601562 C 30.257812 22.207031 30.472656 22.863281 30.578125 23.570312 C 30.589844 23.628906 30.597656 23.691406 30.609375 23.757812 C 30.820312 25.578125 30.542969 27.34375 29.515625 28.824219 C 29.253906 29.160156 28.96875 29.441406 28.648438 29.710938 C 28.597656 29.753906 28.542969 29.796875 28.492188 29.84375 C 27.222656 30.832031 25.617188 31.066406 24.09375 31.0625 C 23.921875 31.0625 23.746094 31.066406 23.574219 31.066406 C 22.773438 31.070312 22.019531 30.96875 21.234375 30.789062 C 21.164062 30.773438 21.09375 30.757812 21.023438 30.738281 C 19.804688 30.441406 18.734375 29.890625 17.761719 29.046875 C 17.707031 29 17.652344 28.957031 17.597656 28.910156 C 17.136719 28.507812 16.765625 28.007812 16.449219 27.46875 C 16.449219 27.386719 16.449219 27.304688 16.449219 27.21875 C 16.5 27.21875 16.550781 27.21875 16.601562 27.21875 C 16.621094 27.175781 16.640625 27.128906 16.660156 27.082031 C 16.777344 26.847656 16.925781 26.65625 17.085938 26.453125 C 17.34375 26.117188 17.589844 25.78125 17.824219 25.425781 C 17.867188 25.367188 17.867188 25.367188 17.914062 25.3125 C 17.964844 25.3125 18.015625 25.3125 18.070312 25.3125 C 18.089844 25.261719 18.109375 25.214844 18.132812 25.164062 C 18.308594 24.804688 18.308594 24.804688 18.457031 24.648438 C 18.703125 24.625 18.703125 24.625 18.917969 24.648438 C 18.917969 24.703125 18.917969 24.757812 18.917969 24.8125 C 18.96875 24.8125 19.019531 24.8125 19.074219 24.8125 C 19.191406 24.953125 19.191406 24.953125 19.316406 25.136719 C 19.355469 25.195312 19.398438 25.253906 19.441406 25.316406 C 19.535156 25.476562 19.535156 25.476562 19.535156 25.644531 C 19.585938 25.644531 19.636719 25.644531 19.691406 25.644531 C 19.691406 25.699219 19.691406 25.753906 19.691406 25.808594 C 19.734375 25.832031 19.777344 25.851562 19.820312 25.871094 C 20.027344 25.992188 20.199219 26.132812 20.386719 26.285156 C 21.109375 26.855469 21.828125 27.195312 22.703125 27.386719 C 22.761719 27.402344 22.816406 27.417969 22.875 27.433594 C 23.972656 27.621094 25.074219 27.519531 26.023438 26.886719 C 26.074219 26.886719 26.125 26.886719 26.175781 26.886719 C 26.175781 26.832031 26.175781 26.777344 26.175781 26.722656 C 26.230469 26.722656 26.28125 26.722656 26.332031 26.722656 C 26.71875 25.957031 26.890625 25.203125 26.699219 24.34375 C 26.523438 23.769531 26.195312 23.492188 25.722656 23.191406 C 25.042969 22.847656 24.347656 22.652344 23.613281 22.488281 C 23.429688 22.445312 23.246094 22.402344 23.058594 22.359375 C 22.925781 22.328125 22.925781 22.328125 22.792969 22.296875 C 20.859375 21.84375 18.933594 21.261719 17.761719 19.417969 C 17.007812 18.023438 16.785156 16.410156 17.125 14.824219 C 17.273438 14.265625 17.472656 13.769531 17.761719 13.277344 C 17.8125 13.277344 17.863281 13.277344 17.914062 13.277344 C 17.925781 13.230469 17.933594 13.179688 17.941406 13.128906 C 18.136719 12.410156 18.964844 11.894531 19.535156 11.535156 C 20.269531 11.128906 21.042969 10.863281 21.851562 10.707031 C 21.921875 10.691406 21.988281 10.675781 22.058594 10.664062 C 22.363281 10.617188 22.660156 10.609375 22.96875 10.609375 Z M 22.96875 10.609375 "/>
<path style=" stroke:none;fill-rule:nonzero;fill:rgb(1.568628%,1.568628%,1.568628%);fill-opacity:1;" d="M 33.898438 10.871094 C 35.121094 10.871094 36.347656 10.871094 37.605469 10.871094 C 37.605469 17.445312 37.605469 24.015625 37.605469 30.789062 C 36.382812 30.789062 35.160156 30.789062 33.898438 30.789062 C 33.898438 24.214844 33.898438 17.644531 33.898438 10.871094 Z M 33.898438 10.871094 "/>
<path style=" stroke:none;fill-rule:nonzero;fill:rgb(38.431373%,38.431373%,38.431373%);fill-opacity:1;" d="M 18.703125 24.625 C 18.773438 24.632812 18.84375 24.640625 18.917969 24.648438 C 18.875 24.667969 18.828125 24.691406 18.78125 24.714844 C 18.605469 24.816406 18.472656 24.929688 18.320312 25.074219 C 18.273438 25.117188 18.226562 25.160156 18.175781 25.207031 C 18.140625 25.242188 18.105469 25.277344 18.070312 25.3125 C 18.371094 24.65625 18.371094 24.65625 18.703125 24.625 Z M 18.703125 24.625 "/>
</g>
</svg>
