<?xml version="1.0" encoding="UTF-8"?>
<svg version="1.1" xmlns="http://www.w3.org/2000/svg" width="518" height="482">
<path d="M0 0 C0.7748172 -0.00570007 1.5496344 -0.01140015 2.34793091 -0.01727295 C3.98682305 -0.02668679 5.62573382 -0.03324249 7.26464844 -0.03710938 C9.71585412 -0.04671065 12.16618187 -0.0777236 14.6171875 -0.109375 C39.13756668 -0.27516421 63.27800442 5.94371253 82.8828125 21.203125 C82.8828125 21.863125 82.8828125 22.523125 82.8828125 23.203125 C83.4809375 23.47125 84.0790625 23.739375 84.6953125 24.015625 C86.95854611 25.24423753 88.39821827 26.09343846 89.8828125 28.203125 C89.51259998 32.75834864 87.46529574 35.78349793 84.9453125 39.515625 C83.87990234 41.11857422 83.87990234 41.11857422 82.79296875 42.75390625 C82.16261719 43.56214844 81.53226563 44.37039062 80.8828125 45.203125 C80.2228125 45.203125 79.5628125 45.203125 78.8828125 45.203125 C78.65851563 45.88761719 78.43421875 46.57210937 78.203125 47.27734375 C76.53554949 50.97265162 74.27126019 53.85797433 71.7578125 57.015625 C71.05591797 57.9118457 71.05591797 57.9118457 70.33984375 58.82617188 C69.19275685 60.28929292 68.03850016 61.74678797 66.8828125 63.203125 C64.5728125 62.873125 62.2628125 62.543125 59.8828125 62.203125 C59.8828125 61.543125 59.8828125 60.883125 59.8828125 60.203125 C59.31691406 59.94144531 58.75101563 59.67976563 58.16796875 59.41015625 C55.68918377 58.10084931 53.56992393 56.56208258 51.3203125 54.890625 C34.8829874 43.23639155 14.64089159 40.26513086 -5.0390625 43.31640625 C-13.51394038 44.95638612 -20.72399711 48.70017778 -26.12890625 55.4921875 C-29.16498584 60.74832529 -28.65034918 67.35336521 -28.1171875 73.203125 C-26.37905777 79.27168081 -22.98958771 82.43808847 -18.1171875 86.203125 C-18.1171875 86.863125 -18.1171875 87.523125 -18.1171875 88.203125 C-17.57578125 88.32945312 -17.034375 88.45578125 -16.4765625 88.5859375 C-13.73136473 89.30405215 -11.06396625 90.19516952 -8.3671875 91.078125 C-2.607139 92.86884715 3.09721669 94.08521869 9.02197266 95.1328125 C13.87012181 95.99429398 18.59963194 97.07624737 23.359375 98.328125 C26.26488922 99.04967177 29.16658224 99.70377354 32.09375 100.328125 C42.10374517 102.47574882 51.67431824 104.57105765 60.8828125 109.203125 C61.79804688 109.64269531 62.71328125 110.08226562 63.65625 110.53515625 C77.79342215 117.72254209 89.72033338 128.64485036 95.12890625 143.8515625 C95.37769531 144.62757813 95.62648437 145.40359375 95.8828125 146.203125 C96.22054687 147.13511719 96.55828125 148.06710937 96.90625 149.02734375 C100.3680271 160.28504286 100.05595335 171.63541059 98.8828125 183.203125 C98.85445312 183.986875 98.82609375 184.770625 98.796875 185.578125 C98.07893321 200.15786592 89.13339784 216.19238226 78.8671875 226.16015625 C60.45640857 241.44882756 37.9908869 246.58514742 14.53051758 246.51879883 C12.21582225 246.51565288 9.90242788 246.53913749 7.58789062 246.56445312 C-5.92698509 246.62222894 -19.04733336 244.84796572 -31.9921875 240.828125 C-32.69504883 240.61389893 -33.39791016 240.39967285 -34.12207031 240.17895508 C-50.22225036 235.13056223 -64.5664249 226.53057681 -76.1171875 214.203125 C-76.4471875 213.213125 -76.7771875 212.223125 -77.1171875 211.203125 C-77.7771875 211.203125 -78.4371875 211.203125 -79.1171875 211.203125 C-80.44140625 209.59375 -80.44140625 209.59375 -81.8046875 207.453125 C-82.26230469 206.75703125 -82.71992187 206.0609375 -83.19140625 205.34375 C-84.1171875 203.203125 -84.1171875 203.203125 -84.00390625 201.24609375 C-82.81374342 198.50400053 -81.17246601 196.54967342 -79.2421875 194.265625 C-78.43523437 193.30398438 -77.62828125 192.34234375 -76.796875 191.3515625 C-75.90388279 190.3018817 -75.01064456 189.25241016 -74.1171875 188.203125 C-73.16094299 187.07074748 -72.20522322 185.93792666 -71.25 184.8046875 C-69.4025365 182.61497471 -67.55094468 180.42888689 -65.6953125 178.24609375 C-64.37672997 176.6897668 -63.06113845 175.12682639 -61.85351562 173.48291016 C-59.98585715 170.99682655 -58.67202005 169.38599781 -55.67578125 168.3984375 C-51.5862576 169.6846083 -49.74309926 172.76986094 -47.1796875 176.078125 C-40.97403773 183.65078795 -34.41529285 189.06904543 -26.1171875 194.203125 C-25.28960937 194.72390625 -24.46203125 195.2446875 -23.609375 195.78125 C-8.45923582 204.30641306 12.23502664 205.88145245 28.93603516 201.76953125 C36.00402546 199.71313076 42.05581933 195.53238294 45.8828125 189.203125 C49.57260688 180.64951075 50.11464621 172.0039377 46.8828125 163.203125 C41.67559206 153.86604007 33.13188116 150.08184287 23.21875 147.1015625 C19.44912217 146.09581658 15.66870126 145.14551757 11.8828125 144.203125 C10.04811535 143.68711643 8.21463994 143.1667302 6.3828125 142.640625 C2.26454296 141.50371652 -1.85424891 140.66831654 -6.0546875 139.890625 C-26.75054886 135.80619254 -47.43248934 129.22279572 -62.1171875 113.203125 C-62.1171875 112.543125 -62.1171875 111.883125 -62.1171875 111.203125 C-62.7771875 111.203125 -63.4371875 111.203125 -64.1171875 111.203125 C-76.46958395 95.47359553 -78.69852503 76.54232172 -77.1171875 57.203125 C-75.49475296 46.2201623 -70.99173878 35.92910069 -64.1171875 27.203125 C-63.4571875 27.203125 -62.7971875 27.203125 -62.1171875 27.203125 C-61.8696875 26.584375 -61.6221875 25.965625 -61.3671875 25.328125 C-59.91090111 22.85243813 -58.73906244 22.25187498 -56.1171875 21.203125 C-56.1171875 20.543125 -56.1171875 19.883125 -56.1171875 19.203125 C-51.76424632 15.203125 -51.76424632 15.203125 -48.1171875 15.203125 C-48.1171875 14.543125 -48.1171875 13.883125 -48.1171875 13.203125 C-32.63589184 5.82084049 -17.40658941 0.1015916 0 0 Z " fill="#050505" transform="translate(93.1171875,127.796875)"/>
<path d="M0 0 C1.2061924 -0.0049926 1.2061924 -0.0049926 2.43675232 -0.01008606 C4.13531934 -0.0151315 5.8338962 -0.01749512 7.5324707 -0.01733398 C10.08887809 -0.0195039 12.64484161 -0.03763904 15.20117188 -0.05664062 C43.03779255 -0.15748566 68.06513681 7.39300912 88.4609375 26.78515625 C90.55859375 29.16796875 90.55859375 29.16796875 90.55859375 32.16796875 C89.89859375 32.16796875 89.23859375 32.16796875 88.55859375 32.16796875 C88.33042969 32.85890625 88.10226562 33.54984375 87.8671875 34.26171875 C86.26815998 37.81299181 84.04313662 40.65526896 81.62109375 43.66796875 C79.19134192 46.716653 76.83356835 49.69549507 74.8671875 53.07421875 C74.43535156 53.76515625 74.00351562 54.45609375 73.55859375 55.16796875 C72.89859375 55.16796875 72.23859375 55.16796875 71.55859375 55.16796875 C71.26984375 55.93109375 70.98109375 56.69421875 70.68359375 57.48046875 C69.55859375 60.16796875 69.55859375 60.16796875 67.55859375 63.16796875 C63.65967997 63.77446645 62.01344413 63.4646103 58.68359375 61.29296875 C57.98234375 60.59171875 57.28109375 59.89046875 56.55859375 59.16796875 C56.55859375 58.50796875 56.55859375 57.84796875 56.55859375 57.16796875 C55.89859375 57.16796875 55.23859375 57.16796875 54.55859375 57.16796875 C54.55859375 56.50796875 54.55859375 55.84796875 54.55859375 55.16796875 C53.52025391 54.77931641 53.52025391 54.77931641 52.4609375 54.3828125 C49.2220818 53.02711382 46.21347167 51.39284532 43.12109375 49.73046875 C26.80963606 41.4723935 5.42378873 40.1103315 -12.171875 45.21875 C-14.56963185 46.1576972 -14.56963185 46.1576972 -17.1171875 47.7734375 C-19.44140625 49.16796875 -19.44140625 49.16796875 -21.44140625 49.16796875 C-21.44140625 49.82796875 -21.44140625 50.48796875 -21.44140625 51.16796875 C-22.33859375 51.97234375 -22.33859375 51.97234375 -23.25390625 52.79296875 C-27.10773843 56.9771294 -28.24872768 61.46138712 -28.87890625 67.04296875 C-28.57340137 73.50948875 -26.19569284 79.9404066 -21.50390625 84.48046875 C-10.95438728 92.4602331 4.08600498 94.61736879 16.79199219 96.90380859 C43.95198036 101.79194423 72.85307604 108.52768245 89.74609375 132.48046875 C94.39060409 139.77544633 97.17112432 147.65526571 98.55859375 156.16796875 C98.68234375 156.91691406 98.80609375 157.66585937 98.93359375 158.4375 C101.69753819 180.37630895 98.07226396 201.67084641 84.76171875 219.4921875 C81.40789881 223.56553264 77.70687778 226.9224201 73.55859375 230.16796875 C72.88441406 230.70035156 72.21023438 231.23273438 71.515625 231.78125 C55.08617931 243.7103222 34.32040766 246.54162803 14.55810547 246.48364258 C12.32469349 246.48049147 10.09262384 246.50401389 7.859375 246.52929688 C-2.53137955 246.57502461 -12.28574151 245.32347035 -22.44140625 243.16796875 C-23.35325684 242.97452881 -24.26510742 242.78108887 -25.20458984 242.58178711 C-40.98614642 238.97471954 -54.81320912 232.33263234 -67.44140625 222.16796875 C-68.14523438 221.62785156 -68.8490625 221.08773437 -69.57421875 220.53125 C-75.54156408 215.69887035 -80.35061279 209.6450584 -84.44140625 203.16796875 C-84.44140625 202.17796875 -84.44140625 201.18796875 -84.44140625 200.16796875 C-83.78140625 200.16796875 -83.12140625 200.16796875 -82.44140625 200.16796875 C-82.1990625 199.61625 -81.95671875 199.06453125 -81.70703125 198.49609375 C-80.16529454 195.66005956 -78.26753344 193.38954874 -76.19140625 190.91796875 C-72.83584698 186.89237833 -69.64757544 182.81719504 -66.6328125 178.53125 C-66.04306641 177.85642578 -66.04306641 177.85642578 -65.44140625 177.16796875 C-64.78140625 177.16796875 -64.12140625 177.16796875 -63.44140625 177.16796875 C-63.17328125 176.59046875 -62.90515625 176.01296875 -62.62890625 175.41796875 C-60.32375919 171.05032169 -60.32375919 171.05032169 -58.44140625 169.16796875 C-55.25390625 168.91796875 -55.25390625 168.91796875 -52.44140625 169.16796875 C-52.44140625 169.82796875 -52.44140625 170.48796875 -52.44140625 171.16796875 C-51.78140625 171.16796875 -51.12140625 171.16796875 -50.44140625 171.16796875 C-48.93359375 172.84765625 -48.93359375 172.84765625 -47.31640625 175.04296875 C-46.77757812 175.76226562 -46.23875 176.4815625 -45.68359375 177.22265625 C-44.44140625 179.16796875 -44.44140625 179.16796875 -44.44140625 181.16796875 C-43.78140625 181.16796875 -43.12140625 181.16796875 -42.44140625 181.16796875 C-42.44140625 181.82796875 -42.44140625 182.48796875 -42.44140625 183.16796875 C-41.88453125 183.420625 -41.32765625 183.67328125 -40.75390625 183.93359375 C-38.08543394 185.357981 -35.84054298 187.07577447 -33.44140625 188.91796875 C-24.08739907 195.76266723 -14.78827696 199.87883228 -3.44140625 202.16796875 C-2.70019531 202.35230469 -1.95898438 202.53664063 -1.1953125 202.7265625 C12.99521505 205.00107259 27.25191048 203.76145417 39.55859375 196.16796875 C40.21859375 196.16796875 40.87859375 196.16796875 41.55859375 196.16796875 C41.55859375 195.50796875 41.55859375 194.84796875 41.55859375 194.16796875 C42.21859375 194.16796875 42.87859375 194.16796875 43.55859375 194.16796875 C48.5496375 184.95373413 50.7994335 175.86980302 48.33203125 165.51953125 C46.05635331 158.60055084 41.78343246 155.2601514 35.64453125 151.625 C26.86151908 147.47808413 17.84591132 145.15160286 8.37109375 143.16796875 C5.97368055 142.64841557 3.57654307 142.12758841 1.1796875 141.60546875 C-0.53565186 141.23421875 -0.53565186 141.23421875 -2.28564453 140.85546875 C-27.30561806 135.40473028 -52.24728639 128.3633007 -67.44140625 106.16796875 C-77.17696191 89.35027359 -80.09628128 69.89665979 -75.65625 50.7890625 C-73.73027927 44.05986111 -71.17412807 38.08831033 -67.44140625 32.16796875 C-66.78140625 32.16796875 -66.12140625 32.16796875 -65.44140625 32.16796875 C-65.32152344 31.57242188 -65.20164063 30.976875 -65.078125 30.36328125 C-62.57112973 21.7195307 -51.8400253 15.50404467 -44.44140625 11.16796875 C-34.94874152 6.26902831 -24.94923029 3.0521303 -14.44140625 1.16796875 C-13.56709961 0.99595947 -12.69279297 0.8239502 -11.79199219 0.64672852 C-7.84971724 0.08342327 -3.97294705 0.00582153 0 0 Z " fill="#050505" transform="translate(297.44140625,127.83203125)"/>
<path d="M0 0 C15.84 0 31.68 0 48 0 C48 79.2 48 158.4 48 240 C32.16 240 16.32 240 0 240 C0 160.8 0 81.6 0 0 Z " fill="#040404" transform="translate(439,131)"/>
<path d="M0 0 C0.928125 0.0825 1.85625 0.165 2.8125 0.25 C2.22984375 0.51554687 1.6471875 0.78109375 1.046875 1.0546875 C-1.24924228 2.28302996 -2.99106018 3.65314939 -4.9375 5.375 C-5.55109375 5.91382813 -6.1646875 6.45265625 -6.796875 7.0078125 C-7.25578125 7.41773438 -7.7146875 7.82765625 -8.1875 8.25 C-4.26293288 0.33434768 -4.26293288 0.33434768 0 0 Z " fill="#626262" transform="translate(242.1875,296.75)"/>
</svg>
